<?xml version="1.0" encoding="utf-8"?>
<svg xmlns="http://www.w3.org/2000/svg" version="1.1" width="1020.0" height="1020.0">
<circle stroke="darkblue" stroke-width="1" cx="361.7342521100977" cy="97.93356302752443" r="1"/>
<circle stroke="darkblue" stroke-width="1" cx="317.7674705963355" cy="97.93356302752443" r="1"/>
<circle stroke="darkblue" stroke-width="1" cx="344.6360104472063" cy="53.72250207567189" r="1"/>
<circle stroke="darkblue" stroke-width="1" cx="363.9325911857858" cy="18.54907686466212" r="1"/>
<circle stroke="darkblue" stroke-width="1" cx="405.7010336238599" cy="10.0" r="1"/>
<circle stroke="darkblue" stroke-width="1" cx="411.0747415940366" cy="18.54907686466212" r="1"/>
<circle stroke="darkblue" stroke-width="1" cx="430.3712343990426" cy="32.22758226140743" r="1"/>
<circle stroke="darkblue" stroke-width="1" cx="478.9789735022745" cy="10.0" r="1"/>
<circle stroke="darkblue" stroke-width="1" cx="533.2047000137703" cy="58.607651169664756" r="1"/>
<circle stroke="darkblue" stroke-width="1" cx="476.7806344265864" cy="83.0336604403243" r="1"/>
<circle stroke="darkblue" stroke-width="1" cx="566.9125365297989" cy="141.90034454128664" r="1"/>
<circle stroke="darkblue" stroke-width="1" cx="616.4973054518249" cy="175.85246049540558" r="1"/>
<circle stroke="darkblue" stroke-width="1" cx="554.9438113325579" cy="225.68142092196115" r="1"/>
<circle stroke="darkblue" stroke-width="1" cx="527.0981537293194" cy="239.8485731284511" r="1"/>
<circle stroke="darkblue" stroke-width="1" cx="511.9540596375962" cy="190.26380420642508" r="1"/>
<circle stroke="darkblue" stroke-width="1" cx="409.8534323371426" cy="232.03224664449917" r="1"/>
<circle stroke="darkblue" stroke-width="1" cx="395.93064750230695" cy="243.5124129655564" r="1"/>
<circle stroke="darkblue" stroke-width="1" cx="396.1748390068333" cy="261.0991255710613" r="1"/>
<circle stroke="darkblue" stroke-width="1" cx="378.09965545871495" cy="230.07809907333737" r="1"/>
<circle stroke="darkblue" stroke-width="1" cx="392.51099916973124" cy="211.514356649032" r="1"/>
<circle stroke="darkblue" stroke-width="1" cx="349.276968036676" cy="282.3497659472354" r="1"/>
<circle stroke="darkblue" stroke-width="1" cx="332.4230058118781" cy="288.4562242981159" r="1"/>
<circle stroke="darkblue" stroke-width="1" cx="288.4562242981159" cy="253.2827990871061" r="1"/>
<circle stroke="darkblue" stroke-width="1" cx="253.77135796328676" cy="279.66286799536346" r="1"/>
<circle stroke="darkblue" stroke-width="1" cx="244.48944278435366" cy="259.14506593346346" r="1"/>
<circle stroke="darkblue" stroke-width="1" cx="215.17828441970124" cy="215.17828441970124" r="1"/>
<circle stroke="darkblue" stroke-width="1" cx="273.8006890825733" cy="171.21150290593906" r="1"/>
<circle stroke="darkblue" stroke-width="1" cx="281.3727361284381" cy="164.37220624078438" r="1"/>
<circle stroke="darkblue" stroke-width="1" cx="302.623288571045" cy="163.88373529816775" r="1"/>
<circle stroke="darkblue" stroke-width="1" cx="265.25152428434717" cy="84.25496969721192" r="1"/>
<circle stroke="darkblue" stroke-width="1" cx="145.5641843783887" cy="345.3688487614804" r="1"/>
<circle stroke="darkblue" stroke-width="1" cx="265.9843625986213" cy="375.65703694493334" r="1"/>
<circle stroke="darkblue" stroke-width="1" cx="296.2725507820678" cy="470.67417607570275" r="1"/>
<circle stroke="darkblue" stroke-width="1" cx="348.29993821787554" cy="491.6804490802226" r="1"/>
<circle stroke="darkblue" stroke-width="1" cx="368.57346084168836" cy="420.1123773348762" r="1"/>
<circle stroke="darkblue" stroke-width="1" cx="428.17289532335445" cy="557.6306213508659" r="1"/>
<circle stroke="darkblue" stroke-width="1" cx="408.632123080255" cy="625.534941192671" r="1"/>
<circle stroke="darkblue" stroke-width="1" cx="493.63459665138436" cy="602.8187121215157" r="1"/>
<circle stroke="darkblue" stroke-width="1" cx="547.6160437247866" cy="618.9399239656067" r="1"/>
<circle stroke="darkblue" stroke-width="1" cx="570.3321848623747" cy="639.9462849036872" r="1"/>
<circle stroke="darkblue" stroke-width="1" cx="588.89592728668" cy="654.8460995573233" r="1"/>
<circle stroke="darkblue" stroke-width="1" cx="588.89592728668" cy="709.8045764495262" r="1"/>
<circle stroke="darkblue" stroke-width="1" cx="628.466030649066" cy="720.5519923898764" r="1"/>
<circle stroke="darkblue" stroke-width="1" cx="661.6853962224812" cy="722.9946109036548" r="1"/>
<circle stroke="darkblue" stroke-width="1" cx="673.1655625435352" cy="749.3746798119122" r="1"/>
<circle stroke="darkblue" stroke-width="1" cx="679.7605797705995" cy="750.8402685068933" r="1"/>
<circle stroke="darkblue" stroke-width="1" cx="684.1572579219758" cy="757.4352857339576" r="1"/>
<circle stroke="darkblue" stroke-width="1" cx="685.622846616957" cy="759.3893453715555" r="1"/>
<circle stroke="darkblue" stroke-width="1" cx="684.4015373600694" cy="764.0303029610219" r="1"/>
<circle stroke="darkblue" stroke-width="1" cx="691.2408340252207" cy="761.8319638853338" r="1"/>
<circle stroke="darkblue" stroke-width="1" cx="695.8817916146905" cy="757.1910062958673" r="1"/>
<circle stroke="darkblue" stroke-width="1" cx="695.8817916146905" cy="753.2827990871077" r="1"/>
<circle stroke="darkblue" stroke-width="1" cx="688.0654651307386" cy="753.7713579632883" r="1"/>
<circle stroke="darkblue" stroke-width="1" cx="677.3180491903851" cy="761.8319638853338" r="1"/>
<circle stroke="darkblue" stroke-width="1" cx="675.119710114697" cy="768.4269811123982" r="1"/>
<circle stroke="darkblue" stroke-width="1" cx="685.8671260550504" cy="783.3267957660311" r="1"/>
<circle stroke="darkblue" stroke-width="1" cx="698.568601632992" cy="783.3267957660311" r="1"/>
<circle stroke="darkblue" stroke-width="1" cx="706.8734869931311" cy="784.5481050229218" r="1"/>
<circle stroke="darkblue" stroke-width="1" cx="694.660482357803" cy="772.8236592637744" r="1"/>
<circle stroke="darkblue" stroke-width="1" cx="640.1904764082136" cy="772.0908209495002" r="1"/>
<circle stroke="darkblue" stroke-width="1" cx="613.0776571192492" cy="792.8529024494937" r="1"/>
<circle stroke="darkblue" stroke-width="1" cx="612.3449067385422" cy="810.1954235504722" r="1"/>
<circle stroke="darkblue" stroke-width="1" cx="606.9711987683655" cy="761.0991255710596" r="1"/>
<circle stroke="darkblue" stroke-width="1" cx="565.9355067109984" cy="780.6399857477263" r="1"/>
<circle stroke="darkblue" stroke-width="1" cx="562.0272995022422" cy="742.0469122041409" r="1"/>
<circle stroke="darkblue" stroke-width="1" cx="508.5344113050205" cy="690.9965545871304" r="1"/>
<circle stroke="darkblue" stroke-width="1" cx="473.36098609401074" cy="707.1176784976574" r="1"/>
<circle stroke="darkblue" stroke-width="1" cx="367.5964310228878" cy="708.338987754545" r="1"/>
<circle stroke="darkblue" stroke-width="1" cx="368.57346084168836" cy="809.462585236198" r="1"/>
<circle stroke="darkblue" stroke-width="1" cx="291.14312224998463" cy="858.0703243394269" r="1"/>
<circle stroke="darkblue" stroke-width="1" cx="283.32679576603266" cy="946.9809171857518" r="1"/>
<circle stroke="darkblue" stroke-width="1" cx="216.6438731146824" cy="744.0009718417386" r="1"/>
<circle stroke="darkblue" stroke-width="1" cx="279.41867649083713" cy="650.6937008440375" r="1"/>
<circle stroke="darkblue" stroke-width="1" cx="178.53927051371033" cy="615.764555071118" r="1"/>
<circle stroke="darkblue" stroke-width="1" cx="161.4411167843861" cy="584.0106902591233" r="1"/>
<circle stroke="darkblue" stroke-width="1" cx="198.08013069037702" cy="566.179786149092" r="1"/>
<circle stroke="darkblue" stroke-width="1" cx="179.027829389891" cy="507.55738148622" r="1"/>
<circle stroke="darkblue" stroke-width="1" cx="26.853874291230714" cy="628.7103100871564" r="1"/>
<circle stroke="darkblue" stroke-width="1" cx="10.0" cy="728.124039435738" r="1"/>
<circle stroke="darkblue" stroke-width="1" cx="45.66189615362322" cy="818.2559415389505" r="1"/>
<circle stroke="darkblue" stroke-width="1" cx="543.7078365160303" cy="575.2173339563708" r="1"/>
<circle stroke="darkblue" stroke-width="1" cx="552.2569133806892" cy="581.5681596789087" r="1"/>
<circle stroke="darkblue" stroke-width="1" cx="567.1568159678925" cy="573.7518331949536" r="1"/>
<circle stroke="darkblue" stroke-width="1" cx="574.2403041375702" cy="532.7161411375864" r="1"/>
<circle stroke="darkblue" stroke-width="1" cx="555.9208411513584" cy="526.609682786706" r="1"/>
<circle stroke="darkblue" stroke-width="1" cx="595.0023856375637" cy="523.190034454127" r="1"/>
<circle stroke="darkblue" stroke-width="1" cx="641.4117856651011" cy="508.0459403624006" r="1"/>
<circle stroke="darkblue" stroke-width="1" cx="642.8773743600823" cy="501.2066436972459" r="1"/>
<circle stroke="darkblue" stroke-width="1" cx="633.1069882385358" cy="469.9413377614318" r="1"/>
<circle stroke="darkblue" stroke-width="1" cx="614.7874373187568" cy="459.1939218210815" r="1"/>
<circle stroke="darkblue" stroke-width="1" cx="659.9755280894066" cy="405.212474747676" r="1"/>
<circle stroke="darkblue" stroke-width="1" cx="729.3453486926255" cy="390.3126600940431" r="1"/>
<circle stroke="darkblue" stroke-width="1" cx="640.1904764082136" cy="327.5378567178852" r="1"/>
<circle stroke="darkblue" stroke-width="1" cx="610.1465676628542" cy="346.10159914219065" r="1"/>
<circle stroke="darkblue" stroke-width="1" cx="575.2173339563708" cy="308.97411429358306" r="1"/>
<circle stroke="darkblue" stroke-width="1" cx="624.3136319357834" cy="268.6711726169229" r="1"/>
<circle stroke="darkblue" stroke-width="1" cx="759.6336248096458" cy="820.6985600527289" r="1"/>
<circle stroke="darkblue" stroke-width="1" cx="748.8861209357316" cy="859.0473541582273" r="1"/>
<circle stroke="darkblue" stroke-width="1" cx="673.8984008578094" cy="915.7156991835016" r="1"/>
<circle stroke="darkblue" stroke-width="1" cx="697.835851252285" cy="1010.0" r="1"/>
<polygon stroke="black" stroke-width="1" fill="none" points="361.7342521100977,97.93356302752443 317.7674705963355,97.93356302752443 344.6360104472063,53.72250207567189 363.9325911857858,18.54907686466212 405.7010336238599,10.0 411.0747415940366,18.54907686466212 430.3712343990426,32.22758226140743 478.9789735022745,10.0 533.2047000137703,58.607651169664756 476.7806344265864,83.0336604403243 566.9125365297989,141.90034454128664 616.4973054518249,175.85246049540558 554.9438113325579,225.68142092196115 527.0981537293194,239.8485731284511 511.9540596375962,190.26380420642508 409.8534323371426,232.03224664449917 395.93064750230695,243.5124129655564 396.1748390068333,261.0991255710613 378.09965545871495,230.07809907333737 392.51099916973124,211.514356649032 349.276968036676,282.3497659472354 332.4230058118781,288.4562242981159 288.4562242981159,253.2827990871061 253.77135796328676,279.66286799536346 244.48944278435366,259.14506593346346 215.17828441970124,215.17828441970124 273.8006890825733,171.21150290593906 281.3727361284381,164.37220624078438 302.623288571045,163.88373529816775 265.25152428434717,84.25496969721192 145.5641843783887,345.3688487614804 265.9843625986213,375.65703694493334 296.2725507820678,470.67417607570275 348.29993821787554,491.6804490802226 368.57346084168836,420.1123773348762 428.17289532335445,557.6306213508659 408.632123080255,625.534941192671 493.63459665138436,602.8187121215157 547.6160437247866,618.9399239656067 570.3321848623747,639.9462849036872 588.89592728668,654.8460995573233 588.89592728668,709.8045764495262 628.466030649066,720.5519923898764 661.6853962224812,722.9946109036548 673.1655625435352,749.3746798119122 679.7605797705995,750.8402685068933 684.1572579219758,757.4352857339576 685.622846616957,759.3893453715555 684.4015373600694,764.0303029610219 691.2408340252207,761.8319638853338 695.8817916146905,757.1910062958673 695.8817916146905,753.2827990871077 688.0654651307386,753.7713579632883 677.3180491903851,761.8319638853338 675.119710114697,768.4269811123982 685.8671260550504,783.3267957660311 698.568601632992,783.3267957660311 706.8734869931311,784.5481050229218 694.660482357803,772.8236592637744 640.1904764082136,772.0908209495002 613.0776571192492,792.8529024494937 612.3449067385422,810.1954235504722 606.9711987683655,761.0991255710596 565.9355067109984,780.6399857477263 562.0272995022422,742.0469122041409 508.5344113050205,690.9965545871304 473.36098609401074,707.1176784976574 367.5964310228878,708.338987754545 368.57346084168836,809.462585236198 291.14312224998463,858.0703243394269 283.32679576603266,946.9809171857518 216.6438731146824,744.0009718417386 279.41867649083713,650.6937008440375 178.53927051371033,615.764555071118 161.4411167843861,584.0106902591233 198.08013069037702,566.179786149092 179.027829389891,507.55738148622 26.853874291230714,628.7103100871564 10.0,728.124039435738 45.66189615362322,818.2559415389505 543.7078365160303,575.2173339563708 552.2569133806892,581.5681596789087 567.1568159678925,573.7518331949536 574.2403041375702,532.7161411375864 555.9208411513584,526.609682786706 595.0023856375637,523.190034454127 641.4117856651011,508.0459403624006 642.8773743600823,501.2066436972459 633.1069882385358,469.9413377614318 614.7874373187568,459.1939218210815 659.9755280894066,405.212474747676 729.3453486926255,390.3126600940431 640.1904764082136,327.5378567178852 610.1465676628542,346.10159914219065 575.2173339563708,308.97411429358306 624.3136319357834,268.6711726169229 759.6336248096458,820.6985600527289 748.8861209357316,859.0473541582273 673.8984008578094,915.7156991835016 697.835851252285,1010.0 "/>
</svg>
