<?xml version="1.0" encoding="utf-8"?>
<svg xmlns="http://www.w3.org/2000/svg" version="1.1" width="1020.0" height="1020.0">
<circle stroke="darkblue" stroke-width="1" cx="427.0780040940172" cy="257.5101987485663" r="1"/>
<circle stroke="darkblue" stroke-width="1" cx="396.93906882884977" cy="487.9910280048198" r="1"/>
<circle stroke="darkblue" stroke-width="1" cx="207.27863997328728" cy="563.8283416326707" r="1"/>
<circle stroke="darkblue" stroke-width="1" cx="10.0" cy="625.3293361013924" r="1"/>
<circle stroke="darkblue" stroke-width="1" cx="499.64881462231966" cy="185.14989619779044" r="1"/>
<circle stroke="darkblue" stroke-width="1" cx="519.3748638957043" cy="129.9859177421931" r="1"/>
<circle stroke="darkblue" stroke-width="1" cx="337.0676964620142" cy="161.30079412319802" r="1"/>
<circle stroke="darkblue" stroke-width="1" cx="795.2564567877935" cy="509.89474601123675" r="1"/>
<circle stroke="darkblue" stroke-width="1" cx="828.2336203016797" cy="124.54900480538882" r="1"/>
<circle stroke="darkblue" stroke-width="1" cx="688.5143943903254" cy="318.86964474964077" r="1"/>
<circle stroke="darkblue" stroke-width="1" cx="612.0056329031229" cy="326.7818411463248" r="1"/>
<circle stroke="darkblue" stroke-width="1" cx="564.260245931389" cy="230.10786719124272" r="1"/>
<circle stroke="darkblue" stroke-width="1" cx="114.49180470666805" cy="94.43184622755173" r="1"/>
<circle stroke="darkblue" stroke-width="1" cx="611.1781187845705" cy="443.27260057200095" r="1"/>
<circle stroke="darkblue" stroke-width="1" cx="797.8660298195439" cy="10.0" r="1"/>
<circle stroke="darkblue" stroke-width="1" cx="865.718558092943" cy="213.2708584370146" r="1"/>
<circle stroke="darkblue" stroke-width="1" cx="935.9846692121196" cy="281.04353885686913" r="1"/>
<circle stroke="darkblue" stroke-width="1" cx="921.76086293753" cy="367.903485721752" r="1"/>
<circle stroke="darkblue" stroke-width="1" cx="868.1865826570462" cy="359.1238512797433" r="1"/>
<circle stroke="darkblue" stroke-width="1" cx="1010.0" cy="438.9934815115925" r="1"/>
<polygon stroke="black" stroke-width="1" fill="none" points="427.0780040940172,257.5101987485663 396.93906882884977,487.9910280048198 207.27863997328728,563.8283416326707 10.0,625.3293361013924 499.64881462231966,185.14989619779044 519.3748638957043,129.9859177421931 337.0676964620142,161.30079412319802 795.2564567877935,509.89474601123675 828.2336203016797,124.54900480538882 688.5143943903254,318.86964474964077 612.0056329031229,326.7818411463248 564.260245931389,230.10786719124272 114.49180470666805,94.43184622755173 611.1781187845705,443.27260057200095 797.8660298195439,10.0 865.718558092943,213.2708584370146 935.9846692121196,281.04353885686913 921.76086293753,367.903485721752 868.1865826570462,359.1238512797433 1010.0,438.9934815115925 "/>
</svg>
